<?xml version="1.0" encoding="utf-8"?>
<!-- Generator: Adobe Illustrator 25.2.1, SVG Export Plug-In . SVG Version: 6.00 Build 0)  -->
<svg version="1.1" id="Layer_1" xmlns="http://www.w3.org/2000/svg" xmlns:xlink="http://www.w3.org/1999/xlink" x="0px" y="0px"
	 viewBox="0 0 1920 1920" style="enable-background:new 0 0 1920 1920;" xml:space="preserve">
<style type="text/css">
	.st0{fill:#FFFFFF;}
</style>
<path class="st0" d="M1429.95,1336.69l-122.81-571.33h-14.23l-256.06,513.39l-77.58,171.99l-77.59-171.99L620.45,765.36h-15.51
	l-117.52,568.26l-26.75,129.38c37.78,35.62,78.85,66.84,122.86,93.42l22.75-114.8l33.57-169.34l27.18-134.48l59.48,134.48
	l141.14,273.53l59.1,114.51l28.65,55.53h7.75l28.79-55.47l59.37-114.42l142.03-273.68l51.73-134.48l28.45,134.48l37.01,171.56
	l24.49,113.48c43.85-26.34,84.79-57.28,122.48-92.57L1429.95,1336.69z"/>
<path class="st0" d="M1630.27,649.04c-36.69-86.75-89.21-164.64-156.09-231.54c-66.88-66.88-144.79-119.4-231.54-156.09
	c-89.84-38-185.25-57.27-283.57-57.27s-193.73,19.26-283.57,57.27c-86.75,36.69-164.66,89.21-231.54,156.09
	c-66.88,66.89-119.4,144.79-156.09,231.54c-38,89.84-57.27,185.25-57.27,283.57s19.26,193.73,57.27,283.57
	c36.69,86.75,89.21,164.66,156.09,231.54c5.18,5.18,10.44,10.29,15.76,15.29c37.78,35.62,78.85,66.84,122.86,93.42l22.75-114.8
	c-23.75-16.54-46.3-34.72-67.47-54.35c-18.17-16.84-35.34-34.76-51.39-53.65c-91.94-108.19-147.47-248.24-147.47-401.02
	c0-341.91,278.16-620.06,620.06-620.06s620.06,278.16,620.06,620.06c0,154.23-56.59,295.48-150.12,404.08
	c-34.98,40.64-75.13,76.7-119.43,107.15l24.49,113.48c43.85-26.34,84.79-57.28,122.48-92.57c5.96-5.56,11.84-11.25,17.63-17.04
	c66.88-66.88,119.4-144.79,156.09-231.54c38-89.84,57.27-185.25,57.27-283.57S1668.27,738.88,1630.27,649.04z M866.71,1545.81
	l59.1,114.51c11.05,0.5,22.13,0.75,33.27,0.75c10.68,0,21.32-0.23,31.92-0.68l59.37-114.42c-29.8,4.42-60.28,6.71-91.29,6.71
	C927.69,1552.67,896.84,1550.33,866.71,1545.81z"/>
</svg>
